<svg width="170" height="87" viewBox="0 0 170 87" fill="none" xmlns="http://www.w3.org/2000/svg">
<path d="M19.3933 58.54C15.1333 58.54 12.1933 56.98 10.5733 53.86C9.07334 51.01 8.32334 47.29 8.32334 42.7C8.32334 38.11 9.43334 34.315 11.6533 31.315C13.8733 28.285 16.9633 26.77 20.9233 26.77C22.8433 26.77 24.6883 27.07 26.4583 27.67L25.7833 30.19C24.2533 29.89 22.7683 29.74 21.3283 29.74C15.0583 29.74 11.9233 34.09 11.9233 42.79C11.9233 49 13.2733 52.93 15.9733 54.58C17.0833 55.24 18.4483 55.57 20.0683 55.57C22.6783 55.57 25.0333 54.7 27.1333 52.96L27.8533 55.255C25.8733 57.445 23.0533 58.54 19.3933 58.54ZM45.197 42.655V39.37C44.327 38.92 43.022 38.695 41.282 38.695C36.842 38.695 34.622 42.04 34.622 48.73C34.622 53.62 36.107 56.065 39.077 56.065C40.337 56.065 41.387 55.645 42.227 54.805C43.097 53.935 43.742 52.765 44.162 51.295C44.852 48.745 45.197 45.865 45.197 42.655ZM38.762 58.54C36.152 58.54 34.247 57.64 33.047 55.84C31.847 54.04 31.247 51.49 31.247 48.19C31.247 44.86 32.087 42.055 33.767 39.775C35.477 37.465 37.982 36.31 41.282 36.31C42.452 36.31 43.607 36.43 44.747 36.67C45.917 36.91 47.072 37.255 48.212 37.705V49.135C48.212 52.195 48.482 54.13 49.022 54.94C49.532 55.75 50.387 56.155 51.587 56.155L51.677 58.18C51.197 58.3 50.597 58.36 49.877 58.36C48.287 58.36 47.147 57.805 46.457 56.695C45.947 55.885 45.692 54.925 45.692 53.815C45.692 53.455 45.722 53.065 45.782 52.645H45.512C45.002 54.445 44.177 55.885 43.037 56.965C41.927 58.015 40.502 58.54 38.762 58.54ZM59.0682 36.445C59.6682 36.685 59.9682 37.465 59.9682 38.785C59.9682 40.075 59.8632 41.275 59.6532 42.385H59.9232C60.5832 40.255 61.3482 38.71 62.2182 37.75C63.0882 36.79 64.4532 36.31 66.3132 36.31L67.7082 36.49L67.3032 39.595C66.9132 39.505 66.4332 39.46 65.8632 39.46C64.6932 39.46 63.6882 39.85 62.8482 40.63C62.0382 41.38 61.4382 42.4 61.0482 43.69C60.2982 46 59.9232 48.595 59.9232 51.475V58H56.8182V43.465C56.8182 40.435 56.6532 38.2 56.3232 36.76L59.0682 36.445ZM80.4098 56.155C81.9098 56.155 83.1398 55.69 84.0998 54.76C85.0598 53.83 85.7048 52.705 86.0348 51.385C86.3948 50.065 86.5748 48.55 86.5748 46.84C86.5748 41.47 84.6698 38.785 80.8598 38.785C79.4498 38.785 78.2798 39.235 77.3498 40.135C75.6698 41.725 74.8298 44.26 74.8298 47.74C74.8298 53.35 76.6898 56.155 80.4098 56.155ZM89.9498 46.885C89.9498 50.185 89.1098 52.96 87.4298 55.21C85.7798 57.43 83.3798 58.54 80.2298 58.54C77.1098 58.54 74.8898 57.64 73.5698 55.84C72.2498 54.01 71.5898 51.34 71.5898 47.83C71.5898 44.32 72.3548 41.53 73.8848 39.46C75.4148 37.36 77.7248 36.31 80.8148 36.31C83.9048 36.31 86.1998 37.255 87.6998 39.145C89.1998 41.005 89.9498 43.585 89.9498 46.885ZM96.4987 39.955C96.4987 38.515 96.3187 37.45 95.9587 36.76L98.5237 36.31C99.0337 36.43 99.3487 36.73 99.4687 37.21C99.6187 37.69 99.6937 38.185 99.6937 38.695C99.6937 39.055 99.6337 41.125 99.5137 44.905C99.3937 48.655 99.3337 50.74 99.3337 51.16C99.3337 51.58 99.3487 52.06 99.3787 52.6C99.4387 53.11 99.5887 53.65 99.8287 54.22C100.249 55.39 101.269 55.975 102.889 55.975C104.089 55.975 105.109 55.555 105.949 54.715C106.819 53.845 107.449 52.705 107.839 51.295C108.589 48.745 108.964 45.955 108.964 42.925V36.85H111.979V49.135C111.979 51.805 112.174 53.65 112.564 54.67C112.954 55.66 113.824 56.155 115.174 56.155L115.264 58.18C114.784 58.3 114.184 58.36 113.464 58.36C111.964 58.36 110.914 57.925 110.314 57.055C109.744 56.155 109.459 55.12 109.459 53.95C109.459 53.62 109.474 53.275 109.504 52.915H109.234C108.754 54.745 107.869 56.14 106.579 57.1C105.319 58.06 103.654 58.54 101.584 58.54C99.5437 58.54 98.1187 57.91 97.3087 56.65C96.4987 55.39 96.0937 53.665 96.0937 51.475C96.0937 51.205 96.1537 49.27 96.2737 45.67C96.4237 42.07 96.4987 40.165 96.4987 39.955ZM124.363 56.065C125.683 56.065 126.793 55.765 127.693 55.165C128.593 54.535 129.043 53.65 129.043 52.51C129.043 51.31 128.473 50.365 127.333 49.675C126.763 49.345 126.073 49.015 125.263 48.685C124.453 48.325 123.958 48.1 123.778 48.01C122.278 47.35 121.108 46.57 120.268 45.67C119.458 44.77 119.053 43.495 119.053 41.845C119.053 40.165 119.728 38.83 121.078 37.84C122.428 36.82 124.018 36.31 125.848 36.31C127.678 36.31 129.328 36.67 130.798 37.39L130.303 39.415C128.803 38.995 127.468 38.785 126.298 38.785C125.158 38.785 124.168 39.055 123.328 39.595C122.488 40.105 122.068 40.825 122.068 41.755C122.068 42.685 122.353 43.42 122.923 43.96C123.493 44.47 124.078 44.86 124.678 45.13C125.308 45.4 125.968 45.685 126.658 45.985C127.378 46.255 127.843 46.45 128.053 46.57C128.263 46.69 128.653 46.915 129.223 47.245C129.793 47.545 130.183 47.83 130.393 48.1C130.633 48.37 130.903 48.73 131.203 49.18C131.773 49.93 132.058 50.995 132.058 52.375C132.058 54.355 131.323 55.885 129.853 56.965C128.383 58.015 126.508 58.54 124.228 58.54C121.978 58.54 119.983 57.79 118.243 56.29L118.738 54.49C120.448 55.54 122.323 56.065 124.363 56.065ZM148.344 41.485C148.344 40.615 148.074 39.955 147.534 39.505C146.994 39.055 146.274 38.83 145.374 38.83C143.574 38.83 142.164 39.58 141.144 41.08C140.124 42.55 139.539 44.335 139.389 46.435C145.359 46.435 148.344 44.785 148.344 41.485ZM144.474 58.54C138.834 58.54 136.014 54.94 136.014 47.74C136.014 44.44 136.839 41.71 138.489 39.55C140.169 37.39 142.524 36.31 145.554 36.31C147.414 36.31 148.884 36.76 149.964 37.66C151.074 38.53 151.629 39.745 151.629 41.305C151.629 42.835 151.254 44.095 150.504 45.085C149.784 46.045 148.794 46.78 147.534 47.29C145.164 48.25 142.419 48.73 139.299 48.73C139.299 53.5 141.204 55.885 145.014 55.885C146.934 55.885 148.749 55.36 150.459 54.31L150.954 56.065C150.204 56.815 149.214 57.415 147.984 57.865C146.784 58.315 145.614 58.54 144.474 58.54ZM157.101 54.13V25.015L160.341 24.475V52.285C160.341 53.875 160.461 54.91 160.701 55.39C160.941 55.84 161.631 56.065 162.771 56.065L162.861 58.045C162.381 58.255 161.571 58.36 160.431 58.36C159.291 58.36 158.451 58.03 157.911 57.37C157.371 56.71 157.101 55.63 157.101 54.13Z" fill="black"/>
</svg>
